<svg xmlns="http://www.w3.org/2000/svg" width="34" height="36" viewBox="0 0 34 36">
    <path d="M130.036 69.831a2.265 2.265 0 0 0-1.945-.352L116.875 72.6l-9.475 2.638a2.169 2.169 0 0 0-1.608 2.077V92.8a6.8 6.8 0 0 0-2.217-.369 6.568 6.568 0 0 0-6.652 6.48 6.654 6.654 0 0 0 13.3 0V87.585l16.261-4.526v3.985a6.8 6.8 0 0 0-2.217-.369 6.482 6.482 0 1 0 6.652 6.48v-21.6a2.142 2.142 0 0 0-.882-1.724zm-3.553 8.735-9.609 2.674-6.652 1.851v-4.146l16.261-4.526v4.147z" transform="translate(-96.918 -69.395)" style="fill:#009fff;fill-rule:evenodd"/>
</svg>
