<svg xmlns="http://www.w3.org/2000/svg" width="16.707" height="16.707" viewBox="0 0 16.707 16.707">
    <path data-name="패스 188" d="M.865 0a.772.772 0 0 1 .777.777L1.562 20.2a.79.79 0 0 1-.785.785.772.772 0 0 1-.777-.777L.08.785A.79.79 0 0 1 .865 0z" transform="rotate(-45 2.006 .33)" style="stroke:#000;stroke-width:.5px"/>
    <path data-name="패스 189" d="M.777 0a.79.79 0 0 1 .785.785l.08 19.424a.772.772 0 0 1-.777.777.79.79 0 0 1-.785-.786L0 .777A.772.772 0 0 1 .777 0z" transform="rotate(45 7.17 18.517)" style="stroke:#000;stroke-width:.5px"/>
</svg>
